<svg version="1.1" xmlns="http://www.w3.org/2000/svg" style="display: block;" viewBox="0 0 2048 2048" width="2048" height="2048" preserveAspectRatio="none">
<defs>
	<linearGradient id="Gradient1" gradientUnits="userSpaceOnUse" x1="1490.18" y1="1419.67" x2="1474.63" y2="1400.66">
		<stop class="stop0" offset="0" stop-opacity="1" stop-color="rgb(33,61,98)"/>
		<stop class="stop1" offset="1" stop-opacity="1" stop-color="rgb(70,100,139)"/>
	</linearGradient>
	<linearGradient id="Gradient2" gradientUnits="userSpaceOnUse" x1="1427.3" y1="1890.84" x2="1283.41" y2="155.921">
		<stop class="stop0" offset="0" stop-opacity="1" stop-color="rgb(162,200,249)"/>
		<stop class="stop1" offset="1" stop-opacity="1" stop-color="rgb(255,255,255)"/>
	</linearGradient>
	<linearGradient id="Gradient3" gradientUnits="userSpaceOnUse" x1="249.713" y1="948.155" x2="-166.954" y2="731.601">
		<stop class="stop0" offset="0" stop-opacity="1" stop-color="rgb(116,169,255)"/>
		<stop class="stop1" offset="1" stop-opacity="1" stop-color="rgb(146,203,253)"/>
	</linearGradient>
	<linearGradient id="Gradient4" gradientUnits="userSpaceOnUse" x1="176.723" y1="159.964" x2="189.018" y2="172.811">
		<stop class="stop0" offset="0" stop-opacity="1" stop-color="rgb(168,211,254)"/>
		<stop class="stop1" offset="1" stop-opacity="1" stop-color="rgb(121,175,255)"/>
	</linearGradient>
	<linearGradient id="Gradient5" gradientUnits="userSpaceOnUse" x1="1018.3" y1="-186.536" x2="777.927" y2="537.915">
		<stop class="stop0" offset="0" stop-opacity="1" stop-color="rgb(131,185,254)"/>
		<stop class="stop1" offset="1" stop-opacity="1" stop-color="rgb(175,216,255)"/>
	</linearGradient>
	<linearGradient id="Gradient6" gradientUnits="userSpaceOnUse" x1="977.81" y1="2062.53" x2="1087.38" y2="11.3244">
		<stop class="stop0" offset="0" stop-opacity="1" stop-color="rgb(43,114,244)"/>
		<stop class="stop1" offset="1" stop-opacity="1" stop-color="rgb(92,156,255)"/>
	</linearGradient>
</defs>
<path transform="translate(0,0)" fill="url(#Gradient6)" d="M 650.217 0 L 1397.78 0 C 1412.45 2.31712 1433.94 1.80754 1449.56 2.35891 C 1479.79 3.38523 1510 5.0265 1540.16 7.28171 C 1671.93 17.8107 1776.79 48.0427 1875.46 139.566 C 1899.4 161.605 1921.41 185.655 1941.25 211.452 C 2018.58 313.43 2036.5 423.009 2043.29 547.607 C 2044.54 569.304 2045.5 591.017 2046.16 612.739 C 2046.46 621.212 2046.64 642.605 2048 650.182 L 2048 1397.76 C 2045.96 1410.97 2046.33 1430.24 2045.82 1443.99 C 2044.8 1474.03 2043.26 1504.06 2041.21 1534.05 C 2032.33 1652.11 2005.88 1762.35 1927.26 1854.05 C 1916.07 1867.12 1896.57 1890.56 1883.11 1900.74 C 1876.05 1908.58 1855.77 1926.5 1847.09 1932.61 C 1835.81 1943.56 1812.49 1958.49 1798.94 1966.81 C 1705.6 2024.18 1607.07 2037.08 1500.01 2043.35 C 1476.88 2044.6 1453.74 2045.58 1430.59 2046.31 C 1425.09 2046.51 1402.43 2047 1397.89 2048 L 650.101 2048 C 642.696 2046.68 622.049 2046.5 613.796 2046.21 C 592.215 2045.55 570.642 2044.61 549.085 2043.39 C 423.336 2036.3 313.993 2019.22 210.93 1940.86 C 185.227 1921.03 161.26 1899.06 139.288 1875.16 C 47.4183 1775.99 17.5466 1670.66 7.14936 1538.39 C 4.97359 1508.76 3.37459 1479.08 2.35327 1449.37 C 1.80146 1433.74 2.32983 1412.61 0 1397.67 L 0 650.224 C 1.10143 644.761 1.36874 626.077 1.6001 619.796 C 2.32077 598.601 3.18479 577.412 4.19211 556.229 C 8.88909 465.341 18.378 376.675 57.509 293.36 C 61.6089 284.631 71.5252 263.208 77.3904 256.024 C 78.8707 253.111 80.47 250.26 82.1845 247.478 C 127.75 172.975 208.043 97.5732 287.41 60.379 C 296.995 55.887 315.557 46.8061 325.635 44.3935 C 330.514 41.9835 335.526 40.2879 340.674 38.5353 C 432.718 7.19979 531.215 4.91151 627.445 1.3652 C 635.016 1.0862 642.76 1.17767 650.217 0 z"/>
<path transform="translate(0,0)" fill="url(#Gradient5)" d="M 325.635 44.3935 C 337.744 43.125 363.045 32.5937 376.714 29.2085 C 416.286 19.5525 456.566 13.0724 497.17 9.82974 C 591.09 1.67764 684.008 1.86147 778.065 1.83945 L 1049.37 1.7916 L 1297.72 1.78755 C 1436.36 1.79195 1614.28 -1.47057 1742.24 54.4809 C 1714.73 54.9734 1690.1 49.854 1663 45.901 C 1648.93 43.8497 1633.65 45.8533 1619.32 41.5141 C 1617.93 41.0958 1607.5 41.6747 1604.87 41.5282 L 1539.69 38.1431 C 1506 36.1882 1467.48 33.5469 1433.54 30.6476 C 1426.42 30.0397 1418.06 32.6733 1410.83 31.938 C 1357.79 31.0392 1304.29 31.2701 1251.24 31.4564 L 865.856 31.2262 C 773.167 30.4722 676.541 28.3671 583.895 35.0806 C 566.383 36.3495 548.583 35.4477 530.989 36.4535 C 509.37 36.6391 488.519 39.8323 467.225 43.2387 C 462.68 43.9658 447.358 44.6852 444.096 45.9601 C 425.274 53.3178 406.823 49.21 389.313 59.8743 C 386.533 61.887 378.271 60.2083 375.822 61.4316 C 370.483 64.0981 363.494 65.8555 358.393 68.2081 C 347.991 73.0058 315.098 79.9448 309.586 90.3631 C 311.932 90.7914 312.525 90.2882 314.654 89.2984 C 315.739 96.0391 304.804 94.902 300.395 97.6935 C 296.872 99.9238 295.278 103.438 291.28 104.625 L 289.574 101.114 L 287.979 100.764 C 280.793 107.29 283.987 109.384 273.403 110.518 C 271.919 110.673 270.433 110.815 268.945 110.942 L 268.818 112.238 C 268.644 114.194 268.69 113.43 268.716 115.538 C 265.593 117.586 262.483 117.302 258.649 117.54 L 258.76 118.795 L 262.009 119.484 L 260.905 120.682 C 254.167 120.372 253.488 120.11 250.853 127.067 L 249.75 127.718 L 248.234 126.143 C 244.281 126.985 242.498 130.054 237.491 132.03 L 236.677 134.568 C 238.428 136.093 238.086 135.843 239.987 136.984 C 238.959 139.938 239.01 139.728 236.791 141.97 C 233.617 142.636 233.664 142.547 230.394 142.25 L 228.698 143.443 C 229.889 147.165 230.149 145.57 228.719 148.477 C 223.932 151.366 224.422 149.516 219.174 150.249 C 218.112 152.2 218.427 151.093 218.459 153.627 C 216.508 155.084 217.316 154.751 214.889 154.984 L 218.505 156.696 L 218.491 157.813 C 212.092 161.319 207.046 157.898 201.584 162.145 L 202.422 163.128 L 209.47 163.579 C 205.673 167.488 206.461 165.383 203.467 166.637 C 202.082 167.218 199.045 175.6 196.355 176.91 L 195.06 174.204 L 193.59 174.155 C 190.959 179.265 196.243 175.503 194.042 178.852 C 190.319 184.517 179.284 193.946 174.152 196.889 C 173.27 200.714 173.33 204.523 170.411 206.238 C 167.456 207.976 162.434 208.282 160.817 210.851 L 161.777 212.674 C 160.694 215.506 159.594 215.933 157.127 217.701 L 156.78 217.418 C 153.211 218.962 151.58 219.541 148.429 221.733 C 147.059 221.521 147.571 221.797 146.776 221.163 L 145.46 220.687 C 141.328 226.287 142.46 232.626 138.133 239.292 L 137.368 238.635 L 137.611 231.544 L 137.059 232.361 C 134.877 235.551 129.799 240.584 128.297 243.807 C 125.656 249.474 114.554 276.982 110.667 279.955 C 103.304 280.184 107.489 276.357 103.456 279.58 C 101.675 285.937 104.185 291.17 99.2764 295.648 C 96.6618 298.636 96.2964 299.032 94.3143 302.418 C 93.9721 301.577 94.8152 289.71 94.7234 289.965 L 93.3627 289.574 C 87.6499 296.564 91.3243 307.429 88.2208 308.784 L 87.2942 306.776 L 86.7455 307.803 C 87.5581 303.301 88.0773 280.73 86.2337 277.101 L 85.663 277.979 C 83.7261 280.898 83.5272 281.54 80.4348 283.324 L 78.3146 282.886 C 76.808 276.812 87.8367 275.011 84.7339 265.094 C 82.1874 263.396 82.0553 263.753 78.8829 263.925 L 79.5708 263.671 C 78.464 266.493 78.4384 267.206 78.4763 270.246 C 72.0683 274.534 72.0728 274.102 72.5606 281.631 L 74.9052 278.339 L 76.2937 278.434 C 76.9043 283.05 72.6397 287.674 68.7859 289.552 L 65.6319 287.881 L 63.6757 288.78 C 60.5303 298.522 54.8403 307.791 51.0215 317.449 C 40.8822 343.093 33.2032 369.847 26.5743 396.6 C 24.7141 404.107 23.4092 420.038 20.1957 426.644 C 19.9487 425.955 19.484 424.851 19.4008 424.187 C 25.2792 389.881 34.3596 356.202 46.5228 323.591 C 55.429 300.357 64.6707 281.852 76.4895 260.143 C 77.3883 258.492 77.3892 257.819 77.3904 256.024 C 78.8707 253.111 80.47 250.26 82.1845 247.478 C 127.75 172.975 208.043 97.5732 287.41 60.379 C 296.995 55.887 315.557 46.8061 325.635 44.3935 z"/>
<path transform="translate(0,0)" fill="url(#Gradient4)" d="M 209.733 151.071 L 211 151.391 C 215.234 147.859 229.557 135.056 233.736 134.586 C 235.173 132.614 235.138 132.799 237.491 132.03 L 236.677 134.568 C 238.428 136.093 238.086 135.843 239.987 136.984 C 238.959 139.938 239.01 139.728 236.791 141.97 C 233.617 142.636 233.664 142.547 230.394 142.25 L 228.698 143.443 C 229.889 147.165 230.149 145.57 228.719 148.477 C 223.932 151.366 224.422 149.516 219.174 150.249 C 218.112 152.2 218.427 151.093 218.459 153.627 C 216.508 155.084 217.316 154.751 214.889 154.984 L 218.505 156.696 L 218.491 157.813 C 212.092 161.319 207.046 157.898 201.584 162.145 L 202.422 163.128 L 209.47 163.579 C 205.673 167.488 206.461 165.383 203.467 166.637 C 202.082 167.218 199.045 175.6 196.355 176.91 L 195.06 174.204 L 193.59 174.155 C 190.959 179.265 196.243 175.503 194.042 178.852 C 190.319 184.517 179.284 193.946 174.152 196.889 C 173.27 200.714 173.33 204.523 170.411 206.238 C 167.456 207.976 162.434 208.282 160.817 210.851 L 161.777 212.674 C 160.694 215.506 159.594 215.933 157.127 217.701 L 156.78 217.418 C 153.211 218.962 151.58 219.541 148.429 221.733 C 147.059 221.521 147.571 221.797 146.776 221.163 C 149.813 215.658 154.949 211.361 158.483 206.282 C 165.269 196.528 165.654 197.698 175.408 193.624 L 174.464 191.036 C 177.471 185.978 184.467 187.647 184.089 181.212 C 181.328 182.961 181.72 183.375 178.216 182.748 C 172.979 181.81 169.739 196.144 163.675 193.167 L 168.386 188.975 C 155.229 193.673 165.169 194.002 157.659 200.891 C 154.119 192.397 155.943 189.855 162.567 185.985 C 160.063 185.756 160.147 185.836 157.875 184.812 C 158.011 181.405 161.592 174.604 165.656 174.617 L 167.076 176.671 L 166.221 179.967 L 168.203 178.067 L 167.731 176.177 C 172.839 166.415 172.509 167.447 180.004 159.559 C 173.021 158.948 166.873 171.565 161.461 172.533 L 161.853 169.709 L 160.651 169.527 C 155.671 173.243 153.899 179.347 149.437 183.264 C 147.067 185.345 149.275 180.829 143.534 185.055 L 142.502 183.603 L 138.548 183.275 L 138.266 181.342 L 139.537 180.078 C 149.939 179.792 171.183 158.771 181.664 152.57 C 185.023 150.583 188.314 146.005 192.291 144.268 L 192.339 147.904 L 193.823 148.159 C 196.868 146.458 197.254 146.085 200.698 145.148 C 202.13 147.164 201.269 146.422 203.152 147.513 L 206.62 145.411 L 206.481 148.72 C 202.174 149.794 199.536 149.735 197.315 153.834 C 201.201 155.354 205.619 152.662 209.733 151.071 z"/>
<path transform="translate(0,0)" fill="rgb(124,183,254)" d="M 186.598 172.584 C 189.996 173.075 189.851 173.797 191.099 176.644 L 190.241 178.312 L 186.905 178.064 L 185.742 177.55 C 184.809 178.908 185.467 178.33 183.55 178.998 L 181.931 177.936 C 182.708 175.294 184.414 174.367 186.598 172.584 z"/>
<path transform="translate(0,0)" fill="rgb(124,183,254)" d="M 157.659 200.891 C 165.169 194.002 155.229 193.673 168.386 188.975 L 163.675 193.167 C 169.739 196.144 172.979 181.81 178.216 182.748 C 181.72 183.375 181.328 182.961 184.089 181.212 C 184.467 187.647 177.471 185.978 174.464 191.036 L 175.408 193.624 C 165.654 197.698 165.269 196.528 158.483 206.282 C 154.949 211.361 149.813 215.658 146.776 221.163 L 145.46 220.687 C 141.328 226.287 142.46 232.626 138.133 239.292 L 137.368 238.635 L 137.611 231.544 L 137.059 232.361 C 134.877 235.551 129.799 240.584 128.297 243.807 C 125.656 249.474 114.554 276.982 110.667 279.955 C 103.304 280.184 107.489 276.357 103.456 279.58 C 101.675 285.937 104.185 291.17 99.2764 295.648 L 96.4259 296.384 C 93.7666 293.638 96.0384 295.356 97.3455 292.583 C 97.3659 292.54 97.3605 287.551 97.3616 287.184 L 94.7451 288.066 L 94.3962 286.556 C 95.6829 285.9 96.9759 285.256 98.2752 284.625 C 97.5006 279.802 96.8118 275.448 98.0633 270.746 L 99.4447 269.606 L 97.5623 268.16 C 99.5344 264.823 101.035 261.366 102.644 257.846 C 106.686 249.008 116.908 242.516 123.586 236.221 L 125.017 234.857 C 128.845 232.737 148.63 207.853 151.262 203.52 L 153.281 201.351 C 155.136 201.499 155.881 201.443 157.659 200.891 z"/>
<path transform="translate(0,0)" fill="rgb(124,183,254)" d="M 247.964 108.259 L 251.006 108.98 C 254.821 107.515 261.196 105.731 265.267 105.513 C 270.069 105.257 269.66 103.727 274.241 103.081 C 271.662 105.034 268.724 106.65 267.691 109.513 L 268.945 110.942 L 268.818 112.238 C 268.644 114.194 268.69 113.43 268.716 115.538 C 265.593 117.586 262.483 117.302 258.649 117.54 L 258.76 118.795 L 262.009 119.484 L 260.905 120.682 C 254.167 120.372 253.488 120.11 250.853 127.067 L 249.75 127.718 L 248.234 126.143 C 244.281 126.985 242.498 130.054 237.491 132.03 C 235.138 132.799 235.173 132.614 233.736 134.586 C 229.557 135.056 215.234 147.859 211 151.391 L 209.733 151.071 C 205.619 152.662 201.201 155.354 197.315 153.834 C 199.536 149.735 202.174 149.794 206.481 148.72 L 206.62 145.411 C 210.193 137.295 213.526 140.354 217.894 134.457 L 218.587 134.479 C 221.622 132.907 220.652 133.417 222.253 129.228 C 224.01 129.892 224.051 129.75 225.956 129.98 C 234.095 126.735 247.101 117.395 247.964 108.259 z"/>
<path transform="translate(0,0)" fill="rgb(148,196,254)" d="M 125.017 234.857 C 120.754 234.86 119.393 235.864 115.835 235.46 L 115.515 234.409 L 118.833 231.741 C 121.758 231.344 120.866 231.747 123.347 230.439 C 121.195 219.294 142.668 204.902 148.34 196.545 C 149.197 195.282 148.554 195.675 150.19 193.634 L 151.69 195.482 C 150.518 199.035 150.692 199.801 151.262 203.52 C 148.63 207.853 128.845 232.737 125.017 234.857 z"/>
<path transform="translate(0,0)" fill="rgb(124,183,254)" d="M 274.241 103.081 L 274.362 102.612 L 273.559 101.842 C 271.285 102.609 269.335 103.236 267.011 103.898 L 267.28 102.604 C 275.851 94.8845 281.775 101.05 291.995 97.3731 L 293.411 99.4866 L 296.263 97.2113 L 296.31 97.3549 C 293.503 97.6203 293.338 97.8927 290.779 96.9004 L 290.588 95.4995 L 292.011 94.4744 C 295.246 95.0518 294.501 95.3031 297.486 94.7463 C 296.977 92.8928 297.456 93.7512 295.42 92.4874 L 292.372 93.5988 L 295.295 90.7556 C 300.442 89.2315 302.837 91.2605 308.694 90.4872 L 309.586 90.3631 C 311.932 90.7914 312.525 90.2882 314.654 89.2984 C 315.739 96.0391 304.804 94.902 300.395 97.6935 C 296.872 99.9238 295.278 103.438 291.28 104.625 L 289.574 101.114 L 287.979 100.764 C 280.793 107.29 283.987 109.384 273.403 110.518 C 271.919 110.673 270.433 110.815 268.945 110.942 L 267.691 109.513 C 268.724 106.65 271.662 105.034 274.241 103.081 z"/>
<path transform="translate(0,0)" fill="rgb(148,196,254)" d="M 237.298 116.326 C 239.839 115.23 245.937 110.277 247.964 108.259 C 247.101 117.395 234.095 126.735 225.956 129.98 C 224.051 129.75 224.01 129.892 222.253 129.228 C 220.652 133.417 221.622 132.907 218.587 134.479 L 217.894 134.457 C 215.378 132.902 216.256 133.595 212.454 133.593 C 214.656 128.42 231.822 117.737 237.298 116.326 z"/>
<path transform="translate(0,0)" fill="url(#Gradient3)" d="M 19.4008 424.187 C 19.484 424.851 19.9487 425.955 20.1957 426.644 C 23.4092 420.038 24.7141 404.107 26.5743 396.6 C 33.2032 369.847 40.8822 343.093 51.0215 317.449 C 54.8403 307.791 60.5303 298.522 63.6757 288.78 L 65.6319 287.881 L 68.7859 289.552 C 72.6397 287.674 76.9043 283.05 76.2937 278.434 L 74.9052 278.339 L 72.5606 281.631 C 72.0728 274.102 72.0683 274.534 78.4763 270.246 C 78.4384 267.206 78.464 266.493 79.5708 263.671 L 78.8829 263.925 C 82.0553 263.753 82.1874 263.396 84.7339 265.094 C 87.8367 275.011 76.808 276.812 78.3146 282.886 L 80.4348 283.324 C 83.5272 281.54 83.7261 280.898 85.663 277.979 L 86.2337 277.101 C 88.0773 280.73 87.5581 303.301 86.7455 307.803 L 87.2942 306.776 L 88.2208 308.784 L 87.3547 310.238 C 86.2266 312.158 80.9347 320.667 80.4699 321.642 C 79.8608 324.027 79.1031 325.017 79.8343 326.716 C 84.3774 337.274 74.9735 341.049 76.3068 351.656 L 75.6169 352.358 C 75.3056 350.118 75.0085 347.876 74.7255 345.632 L 73.6681 345.845 C 73.1541 351.422 72.516 361.063 70.9947 366.245 L 70.0236 367.478 L 68.237 367.507 C 68.1775 364.694 68.3978 362.374 67.2927 359.82 C 65.3868 367.694 60.0816 375.812 57.1621 384.08 C 54.791 390.795 55.6771 403.655 53.6805 408.485 C 49.2558 419.19 46.3529 427.121 45.0623 439.439 C 44.5915 443.932 41.7789 450.642 40.776 455.109 C 37.6969 467.035 39.8926 492.718 36.2486 502.598 L 36.4162 492.913 C 33.3807 512.733 29.1086 529.012 30.9764 549.409 C 29.9764 555.108 27.8431 559.535 27.0546 565.402 C 25.6328 575.98 28.5973 589.385 27.4663 599.284 C 19.6864 667.378 19.293 735.154 18.5814 803.558 L 15.6334 956.721 L 13.3335 1077.62 C 13.077 1098.33 12.1747 1118.98 13.1601 1139.73 C 13.5358 1147.64 11.2886 1155.87 11.012 1163.79 C 10.8913 1171.8 11.8818 1179.91 11.6439 1188.16 L 8.12265 1370.65 C 7.80637 1382.45 8.53703 1411.56 5.16174 1421.43 L 3.75226 1430.07 C 3.03956 1425.83 2.95901 1414.79 2.73984 1409.9 C 1.75275 1387.87 1.96522 1365.6 1.99049 1343.54 L 1.98117 1182.51 L 1.9521 788.283 C 1.95667 701.601 1.45122 615.672 7.5836 529.1 C 9.34735 504.2 13.1847 448.002 19.4008 424.187 z"/>
<path transform="translate(0,0)" fill="rgb(124,183,254)" d="M 70.9947 366.245 C 70.3914 359.271 67.8974 345.983 71.5508 341.1 L 72.5396 342.052 L 70.1913 341.963 L 70.8136 340.921 C 73.0969 342.511 71.8701 342.217 74.3954 342.478 C 75.9495 337.675 72.8296 325.289 75.3435 320.875 C 77.1019 321.35 78.6518 321.547 80.4699 321.642 C 79.8608 324.027 79.1031 325.017 79.8343 326.716 C 84.3774 337.274 74.9735 341.049 76.3068 351.656 L 75.6169 352.358 C 75.3056 350.118 75.0085 347.876 74.7255 345.632 L 73.6681 345.845 C 73.1541 351.422 72.516 361.063 70.9947 366.245 z"/>
<path transform="translate(0,0)" fill="rgb(124,183,254)" d="M 1847.09 1932.61 C 1843.34 1932.95 1836.45 1938.85 1833.14 1941.37 C 1792.29 1972.43 1745.22 1995.78 1696.21 2010.87 C 1685.07 2014.3 1629.27 2030.12 1622.62 2026.97 C 1668.08 2016.53 1709.45 2009.37 1751.85 1987.48 C 1758.46 1984.07 1764.06 1972.23 1775.05 1972.05 C 1781.88 1971.94 1782.43 1961.97 1785.07 1958.46 L 1787.57 1958.16 L 1789.91 1960.36 C 1795.05 1957.84 1810.12 1947.76 1812.99 1943 C 1809.28 1942.95 1807.13 1943.35 1803.8 1942.11 C 1807.7 1939.9 1814.56 1942.37 1816.52 1941.02 C 1848.34 1919.01 1874.79 1890.82 1902.39 1864.06 C 1903.1 1863.37 1903.8 1858.91 1904.08 1858.09 C 1906.17 1851.99 1915.14 1848.57 1919.83 1844.36 C 1938.87 1820.4 1956.74 1796.84 1973.87 1771.41 C 1974.9 1769.88 1974.46 1768.23 1974.68 1767.3 C 1976.04 1761.71 1986.8 1754.83 1989.44 1747.83 C 1992.77 1738.29 1997.74 1729.46 2001.1 1719.9 C 2007.28 1702.28 2013.98 1684.22 2018.13 1666 C 2019.02 1662.08 2020.45 1651.27 2022.66 1648.33 C 2023.21 1651.78 2017.95 1670.96 2016.75 1675.51 C 2000.75 1738.11 1971.44 1796.53 1930.84 1846.79 C 1925.87 1852.96 1919.07 1860.4 1914.44 1866.32 C 1908.24 1874.24 1886.31 1892.88 1883.11 1900.74 C 1876.05 1908.58 1855.77 1926.5 1847.09 1932.61 z"/>
<path transform="translate(0,0)" fill="rgb(124,183,254)" d="M 5.16174 1421.43 C 10.6125 1429.1 3.75562 1440.18 5.2645 1444.97 C 10.1077 1460.37 6.38988 1472.58 7.13787 1485.99 C 8.68997 1513.82 10.6413 1542.25 13.4845 1569.95 C 16.19 1595.99 20.2033 1621.89 25.5092 1647.53 C 27.7286 1658.45 32.4802 1668.05 33.1824 1679.36 L 32.6226 1679.57 C 32.1769 1677.04 31.1616 1675.27 30.8473 1673.65 C 28.779 1662.97 23.8679 1647.82 21.9364 1637.77 C 14.2907 1598.01 10.2335 1557.34 7.64896 1516.98 C 6.13911 1488.26 4.04147 1458.83 3.75226 1430.07 L 5.16174 1421.43 z"/>
<path transform="translate(0,0)" fill="url(#Gradient2)" d="M 1025.87 1167.55 L 931.782 1167.61 C 889.557 1167.69 838.672 1172.44 806.649 1139.45 C 769.849 1101.54 801.147 1028.07 813.915 985.478 L 842.94 888.086 L 938.989 566.684 L 996.307 374.758 C 1006.07 341.974 1015.85 307.744 1026.43 275.282 C 1032.58 256.393 1050.43 229.792 1064.69 215.894 C 1089.73 191.604 1120.91 174.599 1154.89 166.706 C 1186.58 159.138 1218.85 160.629 1251.2 160.608 C 1330.55 160.583 1409.89 160.33 1489.25 160.476 C 1516.41 160.525 1543.22 163.947 1570.21 166.552 C 1658.06 175.032 1733.53 205.348 1795.41 270.551 C 1834.8 311.626 1862.09 362.769 1874.29 418.354 C 1883.78 462.764 1885.13 536.317 1886.25 582.561 C 1887.92 679.486 1888.31 776.429 1887.43 873.365 L 1887.59 1240.74 C 1887.63 1303.12 1889.1 1372.78 1887.37 1434.6 L 1883.99 1531.82 C 1883.06 1558.92 1881.92 1593.75 1877.39 1620.31 C 1861.13 1715.66 1780.2 1822.29 1688.43 1855.61 C 1586.17 1892.75 1466.69 1887.89 1359.64 1887.93 C 1305.67 1887.94 1248.8 1889.35 1195.39 1886.08 C 1148.03 1883.18 1099.67 1871.14 1067.68 1834.25 C 1029.02 1791.66 1022.23 1747.67 1023.76 1692.28 C 1024.05 1673.46 1022.99 1652.9 1023.37 1634.03 C 824.036 1642.84 628.14 1579.97 471.176 1456.79 C 444.238 1435.76 418.644 1412.97 395.227 1388.07 C 386.946 1379.26 378.81 1371.46 377.553 1358.66 C 376.666 1349.23 379.553 1339.83 385.582 1332.52 C 391.792 1324.92 400.839 1320.18 410.625 1319.41 C 432.968 1317.73 447.569 1340.08 462.216 1354.32 C 474.053 1365.76 486.288 1376.79 498.9 1387.38 C 626.866 1493.56 785.987 1555.08 952.099 1562.6 C 976.623 1563.65 1005.54 1564.59 1030.07 1562.42 L 1024.53 1561.75 C 1024.08 1561.17 1023.63 1560.6 1023.18 1560.02 C 1023 1536.18 1023.27 1503.5 1023.41 1480.26 L 1025.87 1167.55 z"/>
<path transform="translate(0,0)" fill="rgb(22,48,87)" d="M 1030.07 1562.42 C 1210.65 1554.84 1398.01 1471.35 1525.86 1342.63 C 1537.79 1330.61 1546.07 1317.07 1565.08 1316.73 C 1592.75 1315.52 1611.32 1348.8 1595.63 1371.04 C 1582.05 1390.28 1559.18 1410.3 1541.31 1426.21 C 1420.64 1532.05 1272.23 1601.19 1113.57 1625.49 C 1089.22 1629.2 1048.25 1633.96 1023.37 1634.03 C 824.036 1642.84 628.14 1579.97 471.176 1456.79 C 444.238 1435.76 418.644 1412.97 395.227 1388.07 C 386.946 1379.26 378.81 1371.46 377.553 1358.66 C 376.666 1349.23 379.553 1339.83 385.582 1332.52 C 391.792 1324.92 400.839 1320.18 410.625 1319.41 C 432.968 1317.73 447.569 1340.08 462.216 1354.32 C 474.053 1365.76 486.288 1376.79 498.9 1387.38 C 626.866 1493.56 785.987 1555.08 952.099 1562.6 C 976.623 1563.65 1005.54 1564.59 1030.07 1562.42 z"/>
<path transform="translate(0,0)" fill="url(#Gradient1)" d="M 1384.82 1473.76 C 1398.05 1465.14 1411.9 1456.98 1424.97 1448.15 C 1452.28 1429.66 1478.45 1409.55 1503.35 1387.93 C 1513.37 1379.28 1522.43 1369.73 1532.23 1361.03 C 1546.65 1348.25 1552.07 1331.36 1573.03 1335.89 C 1575.76 1337.77 1576.32 1337.4 1576.86 1339.79 C 1573.94 1342.1 1566.2 1347.62 1564.29 1349.53 C 1557.55 1356.28 1550.36 1368.2 1542.14 1373.46 C 1540.21 1375.02 1538.71 1375.99 1537.36 1378.09 C 1523.06 1392.78 1507.62 1403.75 1496.14 1415.35 C 1492.71 1420.25 1486.36 1423.85 1481.44 1427.82 L 1478.42 1428.05 C 1474.4 1432.99 1472.26 1434.27 1467.21 1437.88 C 1464.98 1440.35 1460.07 1442.71 1456.99 1443.97 C 1454.56 1445.84 1453.21 1446.82 1450.62 1448.44 C 1444.91 1454.68 1441.12 1453.38 1436.6 1459.23 C 1428.98 1466.88 1419.3 1472.14 1408.75 1474.4 C 1406.75 1474.82 1405.8 1475.31 1404.04 1476.25 C 1403.01 1474.77 1403.24 1475.46 1402.99 1474.31 C 1400.26 1473.37 1400.98 1473.46 1397.83 1474.92 L 1398.25 1473.88 C 1395.72 1476.96 1396.97 1476.72 1394.33 1477.05 C 1393.46 1475.27 1393.82 1476.14 1394.15 1473.65 C 1390.66 1473.29 1389.07 1474.37 1385.45 1475.31 L 1384.82 1473.76 z"/>
<path transform="translate(0,0)" fill="rgb(58,80,110)" d="M 1573.03 1335.89 C 1575.76 1337.77 1576.32 1337.4 1576.86 1339.79 C 1573.94 1342.1 1566.2 1347.62 1564.29 1349.53 C 1557.55 1356.28 1550.36 1368.2 1542.14 1373.46 C 1540.21 1375.02 1538.71 1375.99 1537.36 1378.09 C 1532.53 1378.31 1526.16 1383.61 1522.17 1386.63 C 1522.35 1383.51 1522.06 1381.49 1523.36 1378.86 L 1528.34 1377.99 C 1532.84 1374.44 1531.49 1372.71 1532.64 1371.23 C 1537.96 1364.39 1549.82 1358.49 1554.38 1350.18 C 1557.13 1345.17 1560.11 1341.83 1564.32 1338.92 L 1565.42 1339.45 L 1565.47 1343.57 C 1570.19 1342.76 1573.36 1341.02 1573.03 1335.89 z"/>
<path transform="translate(0,0)" fill="rgb(41,61,89)" d="M 1573.03 1335.89 C 1575.76 1337.77 1576.32 1337.4 1576.86 1339.79 C 1573.94 1342.1 1566.2 1347.62 1564.29 1349.53 C 1557.55 1356.28 1550.36 1368.2 1542.14 1373.46 L 1541.44 1371.9 C 1542.98 1366.12 1560.21 1349.13 1565.47 1343.57 C 1570.19 1342.76 1573.36 1341.02 1573.03 1335.89 z"/>
<path transform="translate(0,0)" fill="rgb(41,61,89)" d="M 1522.17 1386.63 C 1526.16 1383.61 1532.53 1378.31 1537.36 1378.09 C 1523.06 1392.78 1507.62 1403.75 1496.14 1415.35 L 1494.81 1413.25 C 1501.25 1405.82 1512.17 1399.1 1513.8 1392.46 C 1514.52 1392.52 1515.96 1392.3 1516.74 1392.22 C 1519.69 1390.15 1520.47 1389.88 1522.17 1386.63 z"/>
<path transform="translate(0,0)" fill="rgb(41,61,89)" d="M 1402.99 1474.31 C 1407.85 1471.17 1420 1466.47 1425.48 1462.68 C 1426.88 1461.7 1432.41 1459.44 1434.35 1458.46 L 1436.6 1459.23 C 1428.98 1466.88 1419.3 1472.14 1408.75 1474.4 C 1406.75 1474.82 1405.8 1475.31 1404.04 1476.25 C 1403.01 1474.77 1403.24 1475.46 1402.99 1474.31 z"/>
<path transform="translate(0,0)" fill="rgb(58,80,110)" d="M 1450.62 1448.44 C 1447.62 1448.81 1446.37 1449.15 1443.36 1448.53 C 1443.51 1443.11 1454.16 1442.34 1457.23 1437.6 L 1458.17 1438.78 L 1456.99 1443.97 C 1454.56 1445.84 1453.21 1446.82 1450.62 1448.44 z"/>
<path transform="translate(0,0)" fill="rgb(41,61,89)" d="M 1467.21 1437.88 L 1466.52 1436.1 C 1468.64 1430.47 1471.2 1429.79 1476.53 1427.19 L 1478.42 1428.05 C 1474.4 1432.99 1472.26 1434.27 1467.21 1437.88 z"/>
<path transform="translate(0,0)" fill="rgb(58,80,110)" d="M 1515.31 1386.54 L 1518.77 1385.61 L 1519.29 1386.36 C 1517.35 1388.65 1515.88 1390.31 1513.8 1392.46 C 1510.94 1393.29 1512.13 1393.52 1509.82 1392.77 C 1511.47 1390.1 1513.1 1388.71 1515.31 1386.54 z"/>
<path transform="translate(0,0)" fill="rgb(58,80,110)" d="M 1385.45 1475.31 L 1384.33 1477.43 C 1380.11 1479.22 1357.5 1491.77 1352.84 1495.18 C 1350.3 1497.04 1352.4 1498.98 1349.93 1502.73 C 1347.34 1502.93 1347.17 1503.18 1344.84 1502.22 L 1347.82 1499.57 C 1343.07 1496.99 1338.72 1499.9 1335.34 1503.21 C 1329.41 1509 1320.72 1510.77 1312.93 1513.54 C 1312.71 1514.98 1312.55 1515.79 1312.24 1517.18 C 1307.52 1517.01 1306.91 1516.83 1302.48 1518.13 L 1303.12 1519.91 C 1300.19 1522.55 1281.92 1525.8 1276.3 1528.94 C 1269.76 1532.61 1260.57 1535.35 1253.41 1537.65 C 1252.55 1540.08 1253.03 1538.94 1252.01 1541.08 C 1238.82 1541.45 1231.97 1546.04 1219.45 1549.64 C 1216.65 1550.45 1214.34 1552.53 1210.68 1553.26 L 1209.52 1551.13 C 1202.78 1551.97 1184.42 1561.05 1180.85 1560.26 C 1170.9 1558.06 1172.28 1565.5 1164.41 1565.09 C 1146.23 1564.14 1123.47 1572.81 1103.85 1574.78 C 1066.54 1578.26 1028.53 1582.82 990.963 1582.52 C 941.764 1582.12 890.23 1578.22 841.854 1568.93 C 828.311 1566.33 811.331 1563.62 798.906 1560.16 L 798.986 1559.34 C 806.589 1558.66 816.384 1562.93 824.009 1564.48 C 998.015 1599.82 1181.51 1578.46 1340.16 1497.55 C 1354.87 1490.05 1369.93 1480.7 1384.82 1473.76 L 1385.45 1475.31 z"/>
<path transform="translate(0,0)" fill="rgb(58,80,110)" d="M 409.048 1336.84 C 412.585 1336.8 417.629 1337.06 420.363 1339.38 L 419.976 1340.24 C 417.376 1339.07 418.392 1339.25 415.52 1339.35 C 415.565 1340.61 415.61 1341.86 415.655 1343.12 C 410.6 1347.27 404.537 1353.22 400.923 1358.09 L 400.317 1358.92 C 400.053 1354.2 400.577 1352.18 404.156 1349.03 C 405.851 1350.12 404.989 1350 406.675 1349.72 C 407.149 1347.38 407.289 1346.83 408.137 1344.61 L 409.753 1344.05 C 411.592 1342.82 413.768 1341.13 413.482 1338.83 C 409.793 1338.82 411.604 1338.49 407.986 1340.47 L 407.555 1341.26 C 401.639 1351.77 394.61 1346.66 397.499 1361.8 C 395.011 1360.56 395.223 1360.41 393.801 1357.94 C 393.023 1348.45 401.182 1340.67 409.048 1336.84 z"/>
<path transform="translate(0,0)" fill="rgb(22,48,87)" d="M 1426.69 604.33 C 1434.07 604.221 1440.69 605.031 1447.35 608.505 C 1454.02 611.987 1462.32 620.03 1464.39 627.462 C 1467.95 640.214 1467.33 757.781 1465.97 776.341 C 1465.64 780.891 1465.31 786.655 1463 790.618 C 1456.74 801.358 1448.76 807.273 1436.72 810.285 C 1431.53 810.503 1426.07 810.602 1421.04 809.196 C 1411.67 806.58 1401.39 798.54 1397.69 789.237 C 1393.26 778.128 1394.03 658.968 1395.42 639.83 C 1395.79 634.79 1396.11 628.386 1398.62 623.977 C 1405.18 612.435 1414.43 607.613 1426.69 604.33 z"/>
<path transform="translate(0,0)" fill="rgb(41,61,89)" d="M 1413.82 782.218 C 1411.32 771.607 1411.75 645.414 1414.17 634.295 C 1415.08 630.096 1416.75 626.907 1420.56 624.707 C 1425.94 621.602 1431.85 621.839 1437.58 623.525 C 1440.9 625.623 1441.05 624.989 1442.52 627.959 C 1436.7 632.621 1428.8 632.235 1425.7 641.724 C 1423.82 647.487 1423.99 650.735 1424.18 656.686 C 1424.94 680.705 1424.25 704.785 1424.71 728.801 C 1425.04 746.556 1426 764.508 1421.71 781.92 C 1421.22 783.934 1418.76 784.917 1417.12 785.579 C 1415.24 784.185 1415.26 784.099 1413.82 782.218 z"/>
<path transform="translate(0,0)" fill="rgb(58,80,110)" d="M 1413.82 782.218 C 1411.32 771.607 1411.75 645.414 1414.17 634.295 C 1415.08 630.096 1416.75 626.907 1420.56 624.707 C 1425.94 621.602 1431.85 621.839 1437.58 623.525 C 1410.46 641.01 1419.6 641.273 1417.64 666.549 C 1416.44 682.033 1420.36 775.923 1415.76 782.473 L 1413.82 782.218 z"/>
<path transform="translate(0,0)" fill="rgb(22,48,87)" d="M 543.81 605.261 C 549.503 603.732 557.198 605.363 562.444 607.759 C 570.743 611.548 578.603 619.372 581.369 628.206 C 585.215 640.489 584.815 757.651 583.228 776.611 C 582.8 781.731 582.027 786.196 579.69 790.822 C 574.288 801.519 565.792 806.334 554.907 810.01 C 510.932 812.432 512.35 780.194 512.336 748.536 L 512.375 701.092 C 512.361 680.257 511.841 659.232 512.969 638.456 C 513.98 619.833 525.467 607.973 543.81 605.261 z"/>
<path transform="translate(0,0)" fill="rgb(58,80,110)" d="M 545.138 621.739 C 549.915 621.876 559.364 623.596 560.495 628.997 C 558.073 631.536 553.715 631.228 550.949 632.952 C 539.069 640.361 542.543 661.915 542.547 674.917 L 542.569 735.207 C 542.571 746.826 542.797 758.945 541.903 770.523 C 541.617 774.232 540.11 777.259 539.363 780.981 L 539.03 782.674 C 537.993 785.948 537.461 786.135 534.846 787.065 L 533.153 785.947 C 531.891 781.741 529.344 777.066 528.894 772.794 C 527.493 759.497 527.75 641.877 530.762 633.939 C 533.52 626.67 538.519 624.649 545.138 621.739 z"/>
</svg>